<?xml version="1.0" encoding="UTF-8"?>
<svg id="Layer_1" data-name="Layer 1" xmlns="http://www.w3.org/2000/svg" version="1.1" xmlns:xlink="http://www.w3.org/1999/xlink" viewBox="0 0 460.7 153.7">
  <defs>
    <style>
      .cls-1 {
        fill: #006eab;
      }

      .cls-1, .cls-2, .cls-3 {
        stroke-width: 0px;
      }

      .cls-2 {
        fill: #00a47a;
      }

      .cls-3 {
        fill: none;
      }

      .cls-4 {
        clip-path: url(#clippath);
      }
    </style>
    <clipPath id="clippath">
      <rect class="cls-3" x="-68.6" y="-94.4" width="595.3" height="340.2"/>
    </clipPath>
  </defs>
  <g class="cls-4">
    <path class="cls-1" d="M452.2,99.8h4.9v-2.3h-12.5v2.3h4.9v14.4h2.7v-14.4ZM442.1,111.9h-6.7v-5.2h6.3v-2.3h-6.3v-4.5h6.7v-2.3h-9.4v16.7h9.4v-2.3ZM429,111.8h-8.7l8.4-12.4v-1.9h-11.5v2.3h8.2l-8.4,12.5v1.9h11.9v-2.3ZM409.4,96.2c.5-.4,1.2-1,2-1.7.8-.7,1.4-1.3,1.8-1.8v-.2h-3.1c-.3.5-.6,1-1.1,1.7-.5.7-.9,1.2-1.3,1.8v.3h1.8ZM414.2,111.9h-6.7v-5.2h6.3v-2.3h-6.3v-4.5h6.7v-2.3h-9.4v16.7h9.4v-2.3ZM396.6,99.8h4.9v-2.3h-12.5v2.3h4.9v14.4h2.7v-14.4ZM385.7,97.5h-2.5v8.7c0,.6,0,1.5,0,2.6,0,1.1,0,1.7,0,1.9h0l-8.2-13.2h-3.3v16.7h2.5v-8.7c0-1.2,0-2.5-.2-3.9v-.7c0,0,0,0,0,0l8.2,13.3h3.3v-16.7ZM366.7,97.5h-2.7v16.7h2.7v-16.7ZM352.1,97.5h-2.7v16.7h2.7v-16.7ZM336.3,107.2l1.5-4.3c.4-1.1.7-2.1.9-3.1,0,.3.2.8.4,1.4.2.7.4,1.1.5,1.4l1.6,4.5h-4.9ZM346.4,114.2l-6.2-16.8h-3l-6.2,16.8h2.9l1.6-4.6h6.4l1.7,4.6h2.9ZM328.1,97.5h-2.7v16.7h2.7v-16.7ZM314.5,107.5h3.5v4.3c-1,.2-1.9.3-2.8.3-1.8,0-3.1-.5-4-1.6-.9-1.1-1.4-2.6-1.4-4.7s.5-3.5,1.6-4.6c1-1.1,2.4-1.7,4.2-1.7s2.7.3,4.1.9l1-2.3c-1.6-.7-3.2-1-5-1-2.7,0-4.8.8-6.4,2.3-1.5,1.5-2.3,3.6-2.3,6.3s.7,4.8,2.1,6.3c1.4,1.5,3.3,2.2,5.8,2.2s2.1,0,3-.2c.9-.1,1.9-.4,2.9-.7v-8.4h-6.1v2.3ZM295.6,96.2c.5-.4,1.2-1,2-1.7.8-.7,1.4-1.3,1.8-1.8v-.2h-3.1c-.3.5-.6,1-1.1,1.7-.5.7-.9,1.2-1.3,1.8v.3h1.8ZM291.9,101.2c.8-1.1,2.1-1.6,3.7-1.6s2.8.5,3.7,1.6c.8,1.1,1.2,2.6,1.2,4.7s-.4,3.6-1.2,4.7c-.8,1.1-2,1.6-3.7,1.6s-2.9-.5-3.7-1.6c-.8-1.1-1.2-2.6-1.2-4.7s.4-3.6,1.2-4.7M301.3,99.5c-1.4-1.5-3.3-2.2-5.8-2.2s-4.5.7-5.8,2.2c-1.4,1.5-2,3.6-2,6.3s.7,4.9,2,6.4c1.4,1.5,3.3,2.2,5.8,2.2s4.4-.8,5.8-2.3c1.4-1.5,2-3.6,2-6.3s-.7-4.8-2-6.3M285,114.2v-2.3h-7.1v-14.4h-2.7v16.7h9.8ZM259.4,101.2c.8-1.1,2.1-1.6,3.7-1.6s2.8.5,3.7,1.6,1.2,2.6,1.2,4.7-.4,3.6-1.2,4.7c-.8,1.1-2.1,1.6-3.7,1.6s-2.9-.5-3.7-1.6c-.8-1.1-1.2-2.6-1.2-4.7s.4-3.6,1.2-4.7M268.9,99.5c-1.4-1.5-3.3-2.2-5.8-2.2s-4.5.7-5.8,2.2c-1.4,1.5-2,3.6-2,6.3s.7,4.9,2,6.4c1.4,1.5,3.3,2.2,5.8,2.2s4.4-.8,5.8-2.3c1.4-1.5,2-3.6,2-6.3s-.7-4.8-2-6.3M247.9,99.8h4.9v-2.3h-12.5v2.3h4.9v14.4h2.7v-14.4ZM232.8,104.8c1.3-1.5,3.4-3.9,6.3-7.3h-3.1l-4.5,5.3c-.7.8-1.5,1.7-2.2,2.6v-8h-2.7v16.7h2.7v-6.2l1.6-1.3,5.2,7.6h3.2l-6.4-9.4ZM222.2,111.9h-6.7v-5.2h6.3v-2.3h-6.3v-4.5h6.7v-2.3h-9.4v16.7h9.4v-2.3ZM202.3,107.3h6.3v-2.3h-6.3v-5.2h6.7v-2.3h-9.4v16.7h2.7v-6.9ZM194.5,97.5h-2.5v8.7c0,.6,0,1.5,0,2.6,0,1.1,0,1.7,0,1.9h0l-8.2-13.2h-3.3v16.7h2.5v-8.7c0-1.2,0-2.5-.2-3.9v-.7c0,0,0,0,0,0l8.2,13.3h3.3v-16.7ZM175.5,97.5h-2.7v16.7h2.7v-16.7ZM161.6,107.7c-.3-.6-.7-1.1-1.3-1.5-.6-.4-1.5-.9-2.7-1.4-1.1-.4-1.8-.8-2.3-1.1-.4-.3-.7-.6-.9-.9-.2-.3-.3-.7-.3-1.1,0-.6.2-1.1.7-1.5.5-.4,1.1-.6,2-.6s2.5.3,4,.9l.9-2.2c-1.6-.7-3.2-1.1-4.8-1.1s-3,.4-4,1.2c-1,.8-1.5,1.9-1.5,3.3s.3,2.1.9,2.9c.6.8,1.7,1.5,3.2,2.1,1.5.6,2.5,1.1,2.9,1.5.5.4.7,1,.7,1.6s-.3,1.2-.8,1.7c-.5.4-1.3.6-2.4.6s-1.5-.1-2.4-.3c-.9-.2-1.7-.5-2.4-.8v2.6c1.2.6,2.7.9,4.6.9s3.4-.4,4.4-1.3c1.1-.8,1.6-2,1.6-3.5s-.1-1.4-.4-2M143.3,96.2c.5-.4,1.2-1,2-1.7.8-.7,1.4-1.3,1.8-1.8v-.2h-3.1c-.3.5-.6,1-1.1,1.7-.5.7-.9,1.2-1.3,1.8v.3h1.8ZM148.1,111.9h-6.7v-5.2h6.3v-2.3h-6.3v-4.5h6.7v-2.3h-9.4v16.7h9.4v-2.3Z"/>
    <path class="cls-1" d="M454.8,69.4h-2.7v16.7h2.7v-16.7ZM439,79.1l1.5-4.4c.4-1.1.7-2.1.9-3.1,0,.3.2.8.4,1.4.2.7.4,1.1.5,1.4l1.6,4.5h-4.9ZM449.2,86.1l-6.2-16.8h-3l-6.2,16.8h2.9l1.6-4.6h6.4l1.7,4.6h2.9ZM430.8,69.4h-2.7v16.7h2.7v-16.7ZM417.2,79.4h3.5v4.3c-1,.2-1.9.3-2.8.3-1.8,0-3.1-.5-4-1.6s-1.4-2.6-1.4-4.7.5-3.5,1.6-4.6c1-1.1,2.4-1.7,4.2-1.7s2.7.3,4.1.9l1-2.3c-1.6-.7-3.2-1-5-1-2.7,0-4.8.8-6.4,2.3-1.5,1.5-2.3,3.6-2.3,6.3s.7,4.8,2.1,6.3c1.4,1.5,3.3,2.2,5.8,2.2s2.1,0,3-.2c.9-.1,1.9-.4,2.9-.7v-8.4h-6.1v2.3ZM398.4,68.1c.5-.4,1.2-1,2-1.7.8-.7,1.4-1.3,1.8-1.8v-.2h-3.1c-.3.5-.6,1-1.1,1.7-.5.7-.9,1.2-1.3,1.8v.3h1.8ZM394.6,73.1c.8-1.1,2.1-1.6,3.7-1.6s2.8.5,3.7,1.6c.8,1.1,1.2,2.6,1.2,4.7s-.4,3.6-1.2,4.7c-.8,1.1-2,1.6-3.7,1.6s-2.9-.5-3.7-1.6c-.8-1.1-1.2-2.6-1.2-4.7s.4-3.6,1.2-4.7M404.1,71.4c-1.4-1.5-3.3-2.2-5.8-2.2s-4.5.7-5.8,2.2c-1.4,1.5-2,3.6-2,6.3s.7,4.9,2,6.4c1.4,1.5,3.3,2.2,5.8,2.2s4.4-.8,5.8-2.3c1.4-1.5,2-3.6,2-6.3s-.7-4.8-2-6.3M387.7,86.1v-2.3h-7.1v-14.4h-2.7v16.7h9.8ZM362.1,73.1c.8-1.1,2.1-1.6,3.7-1.6s2.8.5,3.7,1.6c.8,1.1,1.2,2.6,1.2,4.7s-.4,3.6-1.2,4.7c-.8,1.1-2,1.6-3.7,1.6s-2.9-.5-3.7-1.6c-.8-1.1-1.2-2.6-1.2-4.7s.4-3.6,1.2-4.7M371.6,71.4c-1.4-1.5-3.3-2.2-5.8-2.2s-4.5.7-5.8,2.2c-1.4,1.5-2,3.6-2,6.3s.7,4.9,2,6.4c1.4,1.5,3.3,2.2,5.8,2.2s4.4-.8,5.8-2.3c1.4-1.5,2-3.6,2-6.3s-.7-4.8-2-6.3M350.6,71.8h4.9v-2.3h-12.5v2.3h4.9v14.4h2.7v-14.4ZM331.8,79.1l1.5-4.4c.4-1.1.7-2.1.9-3.1,0,.3.2.8.4,1.4.2.7.4,1.1.5,1.4l1.6,4.5h-4.9ZM342,86.1l-6.2-16.8h-3l-6.2,16.8h2.9l1.6-4.6h6.4l1.7,4.6h2.9ZM316,86.1l5-13.9h0c0,.3,0,1.1-.1,2.4,0,1.3,0,2.4,0,3.2v8.3h2.6v-16.7h-3.9l-4.8,13.3h0l-4.6-13.3h-3.8v16.7h2.5v-8.1c0-1.8,0-3.8-.2-5.8h0l4.8,13.9h2.4ZM302.1,83.8h-6.7v-5.2h6.3v-2.3h-6.3v-4.5h6.7v-2.3h-9.4v16.7h9.4v-2.3ZM287.6,69.4h-2.7v6.8h-7.7v-6.8h-2.7v16.7h2.7v-7.5h7.7v7.5h2.7v-16.7ZM263.3,79.6c-.3-.6-.7-1.1-1.3-1.5-.6-.4-1.5-.9-2.7-1.4-1.1-.4-1.8-.8-2.3-1.1-.4-.3-.7-.6-.9-.9-.2-.3-.3-.7-.3-1.1,0-.6.2-1.1.7-1.5.5-.4,1.1-.6,2-.6s2.5.3,4,.9l.9-2.2c-1.6-.7-3.2-1.1-4.8-1.1s-3,.4-4,1.2c-1,.8-1.5,1.9-1.5,3.3s.3,2.1.9,2.9c.6.8,1.7,1.5,3.2,2.1,1.5.6,2.5,1.1,2.9,1.5.5.4.7,1,.7,1.6s-.3,1.2-.8,1.7-1.3.6-2.4.6-1.5-.1-2.4-.3c-.9-.2-1.7-.5-2.4-.8v2.6c1.2.6,2.7.9,4.6.9s3.4-.4,4.4-1.3c1.1-.8,1.6-2,1.6-3.5s-.1-1.4-.4-2M238.3,73.1c.8-1.1,2.1-1.6,3.7-1.6s2.8.5,3.7,1.6c.8,1.1,1.2,2.6,1.2,4.7s-.4,3.6-1.2,4.7c-.8,1.1-2,1.6-3.7,1.6s-2.9-.5-3.7-1.6c-.8-1.1-1.2-2.6-1.2-4.7s.4-3.6,1.2-4.7M247.8,71.4c-1.4-1.5-3.3-2.2-5.8-2.2s-4.5.7-5.8,2.2c-1.4,1.5-2,3.6-2,6.3s.7,4.9,2,6.4c1.4,1.5,3.3,2.2,5.8,2.2s4.4-.8,5.8-2.3c1.4-1.5,2-3.6,2-6.3s-.7-4.8-2-6.3M224.1,79.4h3.5v4.3c-1,.2-1.9.3-2.8.3-1.8,0-3.1-.5-4-1.6-.9-1.1-1.4-2.6-1.4-4.7s.5-3.5,1.6-4.6c1-1.1,2.4-1.7,4.2-1.7s2.7.3,4.1.9l1-2.3c-1.6-.7-3.2-1-5-1-2.7,0-4.8.8-6.4,2.3-1.5,1.5-2.3,3.6-2.3,6.3s.7,4.8,2.1,6.3c1.4,1.5,3.3,2.2,5.8,2.2s2.1,0,3-.2c.9-.1,1.9-.4,2.9-.7v-8.4h-6.1v2.3ZM206.8,68.1c.5-.4,1.2-1,2-1.7.8-.7,1.4-1.3,1.8-1.8v-.2h-3.1c-.3.5-.6,1-1.1,1.7-.5.7-.9,1.2-1.3,1.8v.3h1.8ZM204.2,79.1l1.5-4.4c.4-1.1.7-2.1.9-3.1,0,.3.2.8.4,1.4.2.7.4,1.1.5,1.4l1.6,4.5h-4.9ZM214.4,86.1l-6.2-16.8h-3l-6.2,16.8h2.9l1.6-4.6h6.4l1.7,4.6h2.9ZM197.5,83.8h-8.7l8.5-12.4v-1.9h-11.5v2.3h8.2l-8.4,12.5v1.9h11.9v-2.3ZM182.6,79.6c-.3-.6-.7-1.1-1.3-1.5-.6-.4-1.5-.9-2.7-1.4-1.1-.4-1.8-.8-2.3-1.1-.4-.3-.7-.6-.9-.9-.2-.3-.3-.7-.3-1.1,0-.6.2-1.1.7-1.5s1.1-.6,2-.6,2.5.3,4,.9l.9-2.2c-1.6-.7-3.2-1.1-4.8-1.1s-3,.4-4,1.2c-1,.8-1.5,1.9-1.5,3.3s.3,2.1.9,2.9c.6.8,1.7,1.5,3.2,2.1,1.5.6,2.5,1.1,2.9,1.5.5.4.7,1,.7,1.6s-.3,1.2-.8,1.7c-.5.4-1.3.6-2.4.6s-1.5-.1-2.4-.3c-.9-.2-1.7-.5-2.4-.8v2.6c1.2.6,2.7.9,4.6.9s3.4-.4,4.4-1.3c1.1-.8,1.6-2,1.6-3.5s-.1-1.4-.4-2M163.2,79.5l4,6.7h3.1l-4.7-7.4c2.2-.9,3.2-2.4,3.2-4.4s-.5-2.8-1.6-3.7c-1-.8-2.6-1.2-4.8-1.2h-4.7v16.7h2.7v-6.7h2.7ZM160.5,71.7h1.8c1.2,0,2.2.2,2.8.6.6.4.9,1.1.9,2s-.3,1.6-.9,2.1c-.6.5-1.5.7-2.8.7h-1.9v-5.5ZM142,73.1c.8-1.1,2.1-1.6,3.7-1.6s2.8.5,3.7,1.6c.8,1.1,1.2,2.6,1.2,4.7s-.4,3.6-1.2,4.7c-.8,1.1-2,1.6-3.7,1.6s-2.9-.5-3.7-1.6c-.8-1.1-1.2-2.6-1.2-4.7s.4-3.6,1.2-4.7M151.4,71.4c-1.4-1.5-3.3-2.2-5.8-2.2s-4.5.7-5.8,2.2c-1.4,1.5-2,3.6-2,6.3s.7,4.9,2,6.4c1.4,1.5,3.3,2.2,5.8,2.2s4.4-.8,5.8-2.3c1.4-1.5,2-3.6,2-6.3s-.7-4.8-2-6.3"/>
    <path class="cls-1" d="M455.3,55.7h-8.7l8.4-12.4v-1.9h-11.5v2.3h8.2l-8.4,12.5v1.9h11.9v-2.3ZM435.2,40c.5-.4,1.2-1,2-1.7.8-.7,1.4-1.3,1.8-1.8v-.2h-3.1c-.3.5-.6,1-1.1,1.7-.5.7-.9,1.2-1.3,1.8v.3h1.8ZM432.7,51.1l1.5-4.3c.4-1.1.7-2.1.9-3.1,0,.3.2.8.4,1.4.2.7.4,1.1.5,1.4l1.6,4.5h-4.9ZM442.8,58.1l-6.2-16.8h-3l-6.2,16.8h2.9l1.6-4.6h6.4l1.7,4.6h2.9ZM425.4,41.4h-2.7v6.8h-7.7v-6.8h-2.7v16.7h2.7v-7.5h7.7v7.5h2.7v-16.7ZM403,51.4l4,6.7h3.1l-4.7-7.4c2.2-.9,3.2-2.4,3.2-4.4s-.5-2.8-1.6-3.7c-1-.8-2.6-1.2-4.8-1.2h-4.7v16.7h2.7v-6.7h2.7ZM400.3,43.7h1.8c1.2,0,2.2.2,2.8.6.6.4.9,1.1.9,2s-.3,1.6-.9,2.1c-.6.5-1.5.7-2.8.7h-1.9v-5.5ZM386.5,40c.5-.4,1.2-1,2-1.7.8-.7,1.4-1.3,1.8-1.8v-.2h-3.1c-.3.5-.6,1-1.1,1.7-.5.7-.9,1.2-1.3,1.8v.3h1.8ZM382.8,45c.8-1.1,2.1-1.6,3.7-1.6s2.8.5,3.7,1.6c.8,1.1,1.2,2.6,1.2,4.7s-.4,3.6-1.2,4.7c-.8,1.1-2,1.6-3.7,1.6s-2.9-.5-3.7-1.6c-.8-1.1-1.2-2.6-1.2-4.7s.4-3.6,1.2-4.7M392.2,43.4c-1.4-1.5-3.3-2.2-5.8-2.2s-4.5.7-5.8,2.2c-1.4,1.5-2,3.6-2,6.3s.7,4.9,2,6.4c1.4,1.5,3.3,2.2,5.8,2.2s4.4-.8,5.8-2.3c1.4-1.5,2-3.6,2-6.3s-.7-4.8-2-6.3M371,48.7c1.3-1.5,3.4-3.9,6.3-7.3h-3.1l-4.5,5.3c-.7.8-1.5,1.7-2.2,2.6v-8h-2.7v16.7h2.7v-6.2l1.6-1.3,5.2,7.6h3.2l-6.4-9.4ZM353,58.1l5-13.9h0c0,.3,0,1.1-.1,2.4,0,1.3,0,2.4,0,3.2v8.3h2.6v-16.7h-3.9l-4.8,13.3h0l-4.6-13.3h-3.8v16.7h2.5v-8.1c0-1.8,0-3.8-.2-5.8h0l4.8,13.9h2.4ZM336.7,41.4v10.5c0,2.7-1.3,4.1-3.9,4.1s-2.3-.3-2.9-1-1-1.7-1-3v-10.6h-2.7v10.8c0,1.9.6,3.4,1.7,4.5,1.1,1.1,2.8,1.6,4.8,1.6s2.6-.2,3.6-.7c1-.5,1.8-1.2,2.3-2.1.5-.9.8-2,.8-3.2v-10.8h-2.7ZM317,51.4l4,6.7h3.1l-4.7-7.4c2.2-.9,3.2-2.4,3.2-4.4s-.5-2.8-1.6-3.7c-1-.8-2.6-1.2-4.8-1.2h-4.7v16.7h2.7v-6.7h2.7ZM314.4,43.7h1.8c1.2,0,2.2.2,2.8.6.6.4.9,1.1.9,2s-.3,1.6-.9,2.1c-.6.5-1.5.7-2.8.7h-1.9v-5.5ZM304.4,43.7h4.9v-2.3h-12.5v2.3h4.9v14.4h2.7v-14.4ZM294.5,41.4h-2.5v8.7c0,.6,0,1.5,0,2.6,0,1.1,0,1.7,0,1.9h0l-8.2-13.2h-3.3v16.7h2.5v-8.7c0-1.2,0-2.5-.2-3.9v-.7c0,0,0,0,0,0l8.2,13.3h3.3v-16.7ZM277.2,55.7h-6.7v-5.2h6.3v-2.3h-6.3v-4.5h6.7v-2.3h-9.4v16.7h9.4v-2.3ZM262.3,43.8c.6.2,1.2.4,1.8.7l1-2.3c-1.4-.7-3-1.1-4.7-1.1s-3,.3-4.2,1c-1.2.7-2.1,1.7-2.8,3-.6,1.3-1,2.8-1,4.6,0,2.8.7,4.9,2,6.4,1.3,1.5,3.2,2.2,5.6,2.2s3.1-.2,4.5-.7v-2.3c-.7.2-1.4.4-2.1.5-.7.1-1.3.2-2.1.2-1.6,0-2.9-.5-3.8-1.6-.9-1.1-1.3-2.6-1.3-4.6s.4-3.5,1.3-4.6c.9-1.1,2.1-1.7,3.7-1.7s1.4.1,2,.3M243.3,41.4h-2.7v16.7h2.7v-16.7ZM233.3,43.7h4.9v-2.3h-12.5v2.3h4.9v14.4h2.7v-14.4ZM224.2,51.6c-.3-.6-.7-1.1-1.3-1.5-.6-.4-1.5-.9-2.7-1.4-1.1-.4-1.8-.8-2.3-1.1-.4-.3-.7-.6-.9-.9-.2-.3-.3-.7-.3-1.1,0-.6.2-1.1.7-1.5.5-.4,1.1-.6,2-.6s2.5.3,4,.9l.9-2.2c-1.6-.7-3.2-1-4.8-1s-3,.4-4,1.2c-1,.8-1.5,1.9-1.5,3.3s.3,2.1.9,2.9c.6.8,1.7,1.5,3.2,2.1,1.5.6,2.5,1.1,2.9,1.5.5.4.7,1,.7,1.6s-.3,1.2-.8,1.7c-.5.4-1.3.6-2.4.6s-1.5-.1-2.4-.3c-.9-.2-1.7-.5-2.4-.8v2.6c1.2.6,2.7.9,4.6.9s3.4-.4,4.4-1.3c1.1-.8,1.6-2,1.6-3.5s-.1-1.4-.4-2M211.6,55.7h-6.7v-5.2h6.3v-2.3h-6.3v-4.5h6.7v-2.3h-9.4v16.7h9.4v-2.3ZM190.8,43.6h1.9c1.2,0,2.2.2,2.7.7.6.5.9,1.2.9,2.1s-.3,1.8-1,2.3c-.7.5-1.7.7-3.1.7h-1.4v-5.9ZM197.5,42.6c-1-.9-2.6-1.3-4.7-1.3h-4.8v16.7h2.7v-6.2h1.7c2.1,0,3.7-.5,4.9-1.4,1.1-.9,1.7-2.3,1.7-4s-.5-2.9-1.6-3.8M185.3,50.6h-5.9v2.3h5.9v-2.3ZM178.1,58.1v-2.3h-7.1v-14.4h-2.7v16.7h9.8ZM160.2,40c.5-.4,1.2-1,2-1.7.8-.7,1.4-1.3,1.8-1.8v-.2h-3.1c-.3.5-.6,1-1.1,1.7-.5.7-.9,1.2-1.3,1.8v.3h1.8ZM165,55.7h-6.7v-5.2h6.3v-2.3h-6.3v-4.5h6.7v-2.3h-9.4v16.7h9.4v-2.3ZM143.3,55.8h-1.9v-12.1h2.4c3.7,0,5.6,2,5.6,6s-2,6.1-6,6.1M150,43.5c-1.5-1.4-3.5-2.1-6.2-2.1h-5.2v16.7h4.7c2.9,0,5.1-.7,6.6-2.2,1.5-1.5,2.3-3.6,2.3-6.3s-.7-4.6-2.2-6"/>
    <path class="cls-2" d="M57.4,23.3H21.9v126.2h11.7V34.9h23.9c9.2,0,18.6,3.6,25.2,10.2,6.6,6.6,10.2,15.2,10.2,24.4s-3.6,17.9-10.2,24.4c-6.6,6.6-16.8,10.2-26,10.2h-17.2v11.7h17.2c12.3,0,25.5-4.8,34.2-13.6,8.8-8.8,13.6-20.3,13.6-32.7s-4.8-23.9-13.6-32.7c-8.8-8.8-22.2-13.6-33.4-13.6M121.5,69.4c0-17.8-7.3-33.9-19-45.6-11.7-11.7-27.9-19-45.6-19H4.5v129.7h11.5V16.3h40.9c14.6,0,27.9,6,37.5,15.6,9.6,9.6,15.6,22.9,15.6,37.5s-6,27.9-15.6,37.5-23.4,15.5-37.5,15.6h-17.7v11.5h17.7c17.8,0,33.9-7.3,45.6-19,11.7-11.7,19-27.9,19-45.6"/>
    <path class="cls-1" d="M72.7,61.5l6.8-6.8-.9-.9c-4.2-4-9.6-6.2-15.3-6.2-12.2,0-22.1,9.9-22.1,22.1s9.9,22.1,22.1,22.1,11.8-2.5,16.1-7l.8-.9-6.9-6.9-.9,1c-2.4,2.6-5.7,4.1-9.2,4.1-6.9,0-12.4-5.6-12.4-12.4s5.6-12.4,12.4-12.4,6.2,1.2,8.5,3.4l.9.8ZM63.7,75c2.9,0,5.3-2.4,5.3-5.3s-2.4-5.3-5.3-5.3-5.3,2.4-5.3,5.3,2.4,5.3,5.3,5.3"/>
  </g>
</svg>